HIERARCHY
ROOT Hips
{
 OFFSET 0.000000 0.000000 0.000000
 CHANNELS 6 Xposition Yposition Zposition Yrotation Xrotation Zrotation
 JOINT Chest
 {
  OFFSET 0.000000 10.080317 -0.001081
  CHANNELS 3 Yrotation Xrotation Zrotation
  JOINT Chest2
  {
   OFFSET 0.000000 11.096852 0.001963
   CHANNELS 3 Yrotation Xrotation Zrotation
   JOINT Chest3
   {
    OFFSET 0.000000 10.026525 0.000000
    CHANNELS 3 Yrotation Xrotation Zrotation
    JOINT Chest4
    {
     OFFSET 0.000000 10.026525 0.000000
     CHANNELS 3 Yrotation Xrotation Zrotation
     JOINT Neck
     {
      OFFSET 0.000000 14.108171 0.000000
      CHANNELS 3 Yrotation Xrotation Zrotation
      JOINT Head
      {
       OFFSET 0.000000 9.333493 0.004668
       CHANNELS 3 Yrotation Xrotation Zrotation
       End Site
       {
        OFFSET 0.000000 17.851786 0.002438
       }
      }
     }
     JOINT RightCollar
     {
      OFFSET -3.071622 7.873185 0.000000
      CHANNELS 3 Yrotation Xrotation Zrotation
      JOINT RightShoulder
      {
       OFFSET -14.378659 0.000000 0.000000
       CHANNELS 3 Yrotation Xrotation Zrotation
       JOINT RightElbow
       {
        OFFSET -30.778728 0.000000 0.000000
        CHANNELS 3 Yrotation Xrotation Zrotation
        JOINT RightWrist
        {
         OFFSET -25.164217 0.000000 0.000000
         CHANNELS 3 Yrotation Xrotation Zrotation
         End Site
         {
          OFFSET -18.796788 0.000000 0.000000
         }
        }
       }
      }
     }
     JOINT LeftCollar
     {
      OFFSET 3.071622 7.873185 0.000000
      CHANNELS 3 Yrotation Xrotation Zrotation
      JOINT LeftShoulder
      {
       OFFSET 14.378659 0.000000 0.000000
       CHANNELS 3 Yrotation Xrotation Zrotation
       JOINT LeftElbow
       {
        OFFSET 30.778728 0.000000 0.000000
        CHANNELS 3 Yrotation Xrotation Zrotation
        JOINT LeftWrist
        {
         OFFSET 25.164217 0.000000 0.000000
         CHANNELS 3 Yrotation Xrotation Zrotation
         End Site
         {
          OFFSET 18.796788 0.000000 0.000000
         }
        }
       }
      }
     }
    }
   }
  }
 }
 JOINT RightHip
 {
  OFFSET -8.194923 0.005295 0.000540
  CHANNELS 3 Yrotation Xrotation Zrotation
  JOINT RightKnee
  {
   OFFSET 0.000000 -42.473320 -0.000511
   CHANNELS 3 Yrotation Xrotation Zrotation
   JOINT RightAnkle
   {
    OFFSET 0.000000 -41.474259 -0.000865
    CHANNELS 3 Yrotation Xrotation Zrotation
    JOINT RightToe
    {
     OFFSET 0.000000 -7.354994 16.712725
     CHANNELS 3 Yrotation Xrotation Zrotation
     End Site
     {
      OFFSET 0.000000 -1.553903 6.764158
     }
    }
   }
  }
 }
 JOINT LeftHip
 {
  OFFSET 8.194923 0.005295 0.000540
  CHANNELS 3 Yrotation Xrotation Zrotation
  JOINT LeftKnee
  {
   OFFSET 0.000000 -42.473320 -0.000511
   CHANNELS 3 Yrotation Xrotation Zrotation
   JOINT LeftAnkle
   {
    OFFSET 0.000000 -41.474259 -0.000865
    CHANNELS 3 Yrotation Xrotation Zrotation
    JOINT LeftToe
    {
     OFFSET 0.000000 -7.354994 16.712725
     CHANNELS 3 Yrotation Xrotation Zrotation
     End Site
     {
      OFFSET 0.000000 -1.553903 6.764158
     }
    }
   }
  }
 }
}
MOTION
Frames: 14
Frame Time: 0.016667
0.000000 91.111157 0.000000 0.000000 -5.826342 0.000000 0.000000 11.116423 0.000000 0.000000 -5.290081 0.000000 0.000000 0.000000 0.000000 0.000000 0.000000 0.000000 0.000000 12.665069 0.000000 0.000000 0.575450 0.000000 0.000000 0.000000 0.000000 0.000000 0.000000 0.000000 2.337306 0.000000 0.000000 -2.337306 0.000000 0.000000 0.000000 0.000000 0.000000 0.000000 0.000000 0.000000 -2.337306 0.000000 0.000000 2.337306 0.000000 0.000000 0.000000 8.578828 0.000000 0.000000 1.905768 0.000000 0.000000 -4.658254 0.000000 0.000000 0.000000 0.000000 0.000000 8.578828 0.000000 0.000000 1.905768 0.000000 0.000000 -4.658254 0.000000 0.000000 0.000000 0.000000
-51.030775 92.527724 69.730641 -0.699397 -4.934726 -0.045981 -0.987163 2.438714 -0.902939 -0.450617 1.087598 -0.410834 -0.450617 1.087598 -0.410834 -0.337221 0.816002 -0.307314 -1.222844 18.306131 1.014163 -2.582573 -2.154661 2.267817 -3.419685 0.527389 11.290764 -4.299968 -3.522985 71.440600 18.516923 20.675448 10.942437 -5.013043 2.352777 -7.209032 -3.549391 1.421993 -5.307233 -2.508193 -8.491713 -72.039644 -17.235102 23.630828 -18.906547 4.024168 5.104271 15.925011 -5.357538 7.608930 -5.136540 -0.103947 2.257025 -0.735129 -5.043870 -4.240735 5.059704 0.011382 0.042802 0.002925 7.545751 9.825485 5.390253 -1.270603 1.964143 -0.185817 1.926139 -6.155639 -4.517942 -0.006879 -0.024136 -0.017120
-51.026866 92.525909 69.719011 -0.691595 -4.962992 -0.027904 -0.982685 2.446945 -0.892343 -0.448101 1.091077 -0.407574 -0.448101 1.091077 -0.407574 -0.335338 0.818607 -0.304871 -1.230466 18.310893 1.014046 -2.596420 -2.145593 2.269986 -3.431901 0.545833 11.299571 -4.324269 -3.524209 71.426659 18.502912 20.625259 10.927232 -4.987656 2.349516 -7.217987 -3.556040 1.419056 -5.316997 -2.541362 -8.411782 -72.055630 -17.170865 23.686433 -18.891129 4.041107 5.127844 15.928885 -5.324867 7.610658 -5.145533 -0.122289 2.300310 -0.750710 -5.058486 -4.269033 5.064421 0.009715 0.046161 0.007603 7.513461 9.836500 5.365739 -1.288826 1.994368 -0.184038 1.962234 -6.170491 -4.502127 -0.003535 -0.022021 -0.025060
-51.020284 92.525773 69.710691 -0.667067 -4.985589 -0.010886 -0.968740 2.456240 -0.883696 -0.441760 1.094397 -0.403127 -0.441760 1.094397 -0.403127 -0.330588 0.821090 -0.301545 -1.243994 18.323345 1.021975 -2.623569 -2.121816 2.288676 -3.471977 0.575731 11.317183 -4.345040 -3.517819 71.394121 18.504831 20.585451 10.910615 -4.951452 2.320311 -7.238980 -3.581424 1.433098 -5.308492 -2.565094 -8.344024 -72.078333 -17.136310 23.726782 -18.881334 4.048760 5.128301 15.911760 -5.337485 7.605473 -5.164046 -0.111801 2.348004 -0.758194 -5.082230 -4.297475 5.072809 0.008748 0.044993 0.007517 7.468687 9.843666 5.343816 -1.307156 2.021176 -0.192638 1.986585 -6.180794 -4.477463 -0.004508 -0.023476 -0.031845
-51.017358 92.524883 69.698021 -0.651049 -5.002167 -0.000664 -0.965509 2.464561 -0.874365 -0.440507 1.098391 -0.397820 -0.440507 1.098391 -0.397820 -0.329655 0.824081 -0.297564 -1.241353 18.335119 1.028383 -2.620519 -2.099837 2.299263 -3.471015 0.596048 11.313568 -4.384170 -3.517985 71.375723 18.491385 20.531967 10.904245 -4.915116 2.321183 -7.273607 -3.579626 1.429053 -5.318540 -2.564568 -8.288212 -72.081570 -17.111470 23.782495 -18.868698 4.062707 5.130189 15.880066 -5.366044 7.580972 -5.167068 -0.080125 2.411058 -0.784434 -5.108797 -4.327909 5.094631 0.009931 0.042635 0.003747 7.431317 9.854422 5.332461 -1.314364 2.022447 -0.203038 2.006754 -6.176205 -4.454822 -0.004988 -0.023982 -0.037123
-51.012256 92.521977 69.688178 -0.631980 -5.003999 0.013802 -0.952715 2.485566 -0.858908 -0.435397 1.106759 -0.391342 -0.435397 1.106759 -0.391342 -0.325829 0.830349 -0.292709 -1.245850 18.331714 1.032082 -2.630089 -2.105903 2.307633 -3.511525 0.576919 11.292884 -4.410075 -3.490856 71.354469 18.503628 20.464614 10.909488 -4.890888 2.315751 -7.293358 -3.596185 1.394817 -5.322677 -2.544668 -8.264396 -72.098975 -17.092477 23.836408 -18.878835 4.071564 5.139487 15.869881 -5.415011 7.544920 -5.188622 -0.053237 2.468126 -0.790648 -5.107933 -4.363976 5.106426 0.009406 0.044928 0.002177 7.394725 9.870860 5.308831 -1.307798 1.988033 -0.197073 2.006363 -6.159317 -4.445424 -0.002003 -0.021161 -0.036592
-51.008580 92.520947 69.675539 -0.616632 -5.010063 0.025219 -0.930047 2.496636 -0.851685 -0.425656 1.112767 -0.389566 -0.425656 1.112767 -0.389566 -0.318523 0.834848 -0.291390 -1.251669 18.336181 1.045436 -2.645061 -2.097008 2.333965 -3.566190 0.573519 11.295540 -4.428438 -3.470278 71.334825 18.503202 20.411041 10.910467 -4.878587 2.293321 -7.311946 -3.612001 1.365816 -5.310041 -2.536789 -8.229344 -72.098277 -17.087554 23.867462 -18.887761 4.090102 5.141359 15.865984 -5.430918 7.514946 -5.205747 -0.052776 2.521576 -0.792401 -5.084599 -4.394234 5.113930 0.007898 0.043627 0.000778 7.383525 9.888110 5.284071 -1.320227 1.951809 -0.175672 2.009702 -6.140510 -4.444459 -0.001639 -0.019138 -0.035113
-51.006359 92.520228 69.662837 -0.601764 -5.015110 0.039137 -0.924452 2.513750 -0.835917 -0.422991 1.120085 -0.383067 -0.422991 1.120085 -0.383067 -0.316531 0.840329 -0.286516 -1.248056 18.342026 1.048301 -2.639209 -2.086178 2.337879 -3.567420 0.573405 11.262638 -4.477869 -3.465432 71.335023 18.507881 20.384217 10.922136 -4.862896 2.291561 -7.319430 -3.605672 1.327854 -5.325138 -2.513213 -8.205277 -72.102337 -17.085015 23.889556 -18.897775 4.091991 5.123709 15.873098 -5.435790 7.495417 -5.217078 -0.047029 2.554115 -0.800418 -5.090081 -4.412745 5.120092 0.006343 0.042324 0.000797 7.374524 9.893871 5.256474 -1.333663 1.938002 -0.154017 2.020331 -6.133576 -4.442907 0.000699 -0.017373 -0.035246
-51.007039 92.521060 69.645119 -0.577658 -5.018089 0.053604 -0.912464 2.534275 -0.829855 -0.416864 1.129824 -0.380392 -0.416864 1.129824 -0.380392 -0.311934 0.847628 -0.284514 -1.246626 18.347272 1.056605 -2.639174 -2.076219 2.352522 -3.593028 0.551562 11.244627 -4.488772 -3.448381 71.332822 18.528108 20.372688 10.934626 -4.875345 2.315803 -7.331025 -3.631446 1.279678 -5.329471 -2.470285 -8.194677 -72.073111 -17.080325 23.912978 -18.912338 4.090132 5.118425 15.886458 -5.445278 7.478022 -5.228418 -0.049912 2.574585 -0.802256 -5.104386 -4.422961 5.121879 0.005527 0.041575 -0.001016 7.341056 9.888904 5.225021 -1.331189 1.933152 -0.130908 2.029564 -6.121714 -4.439861 0.001383 -0.019201 -0.038072
-51.009997 92.523423 69.624174 -0.543732 -5.020831 0.064029 -0.901648 2.553009 -0.824673 -0.411692 1.138594 -0.378411 -0.411692 1.138594 -0.378411 -0.308054 0.854202 -0.283032 -1.242855 18.355816 1.072819 -2.637351 -2.059957 2.380839 -3.622259 0.551447 11.224988 -4.487793 -3.453524 71.326636 18.540274 20.389166 10.947183 -4.866816 2.325073 -7.320456 -3.663719 1.243522 -5.320740 -2.443046 -8.202679 -72.069224 -17.077572 23.943067 -18.915260 4.097252 5.103386 15.900459 -5.462163 7.459371 -5.222713 -0.058110 2.594242 -0.830066 -5.107553 -4.424229 5.129456 0.006294 0.035647 0.002032 7.320360 9.875319 5.212981 -1.340529 1.932698 -0.127176 2.018708 -6.105337 -4.432390 -0.000850 -0.024826 -0.037525
-51.011695 92.526388 69.597932 -0.510084 -5.024317 0.076036 -0.892244 2.572830 -0.821099 -0.407140 1.148284 -0.377143 -0.407140 1.148284 -0.377143 -0.304637 0.861465 -0.282083 -1.246129 18.358599 1.091075 -2.649293 -2.054103 2.415381 -3.649100 0.529411 11.203563 -4.459037 -3.449552 71.330113 18.540419 20.397023 10.955597 -4.894958 2.324800 -7.311502 -3.691956 1.198138 -5.307483 -2.437486 -8.210993 -72.057661 -17.094107 23.979144 -18.923447 4.115769 5.110640 15.888862 -5.470136 7.441878 -5.224553 -0.065822 2.606902 -0.843691 -5.127019 -4.417176 5.133257 0.005863 0.029845 0.002056 7.305814 9.856075 5.201386 -1.350343 1.937544 -0.128764 2.003920 -6.088553 -4.421354 -0.002284 -0.030276 -0.036673
-51.014092 92.527609 69.568487 -0.468725 -5.016776 0.086376 -0.882708 2.587810 -0.810986 -0.402035 1.154343 -0.372728 -0.402035 1.154343 -0.372728 -0.300812 0.866004 -0.278777 -1.257670 18.368685 1.099778 -2.673085 -2.034730 2.434882 -3.675651 0.512934 11.186355 -4.421699 -3.424409 71.313653 18.565387 20.397664 10.967512 -4.887249 2.330407 -7.283073 -3.741639 1.178827 -5.314895 -2.445894 -8.243451 -72.019967 -17.116391 23.995130 -18.948484 4.129894 5.121520 15.879106 -5.495580 7.413342 -5.236040 -0.061968 2.614552 -0.839650 -5.123671 -4.409226 5.129675 0.002810 0.026570 0.000206 7.275652 9.826153 5.183469 -1.344025 1.937920 -0.117893 1.982107 -6.069179 -4.421628 -0.000243 -0.032143 -0.032829
-51.019052 92.528334 69.540552 -0.433821 -4.997918 0.092223 -0.870346 2.597945 -0.809314 -0.396861 1.158127 -0.372299 -0.396861 1.158127 -0.372299 -0.296930 0.868838 -0.278463 -1.260888 18.373734 1.114864 -2.683816 -2.024763 2.463513 -3.694305 0.490572 11.174645 -4.402249 -3.413987 71.310182 18.591435 20.391434 10.999732 -4.902374 2.354612 -7.262700 -3.789836 1.158283 -5.291363 -2.448066 -8.302310 -71.973246 -17.155638 24.019867 -18.992946 4.147947 5.116943 15.866759 -5.527966 7.390752 -5.229864 -0.056910 2.587864 -0.851716 -5.138933 -4.381917 5.129872 0.000428 0.024522 -0.001991 7.274510 9.796108 5.181052 -1.367766 1.913446 -0.117362 1.966035 -6.038904 -4.423506 0.002762 -0.033158 -0.025834
-51.020137 92.529661 69.518371 -0.400655 -4.973960 0.101358 -0.865288 2.611093 -0.803833 -0.394260 1.163570 -0.369457 -0.394260 1.163570 -0.369457 -0.294981 0.872917 -0.276333 -1.263256 18.379409 1.127431 -2.692139 -2.013737 2.487219 -3.713112 0.446464 11.147719 -4.356274 -3.392792 71.276465 18.630625 20.390676 11.061227 -4.915388 2.368301 -7.247171 -3.830923 1.122460 -5.280556 -2.446427 -8.352998 -71.932698 -17.217289 24.034221 -19.040929 4.146278 5.115988 15.868154 -5.544005 7.362457 -5.242323 -0.068604 2.572076 -0.838127 -5.151361 -4.364289 5.118907 0.000394 0.022334 -0.000412 7.287635 9.752642 5.170917 -1.400319 1.912874 -0.113340 1.953037 -6.022803 -4.421191 0.001316 -0.035605 -0.022772
